<svg xmlns="http://www.w3.org/2000/svg" viewBox="0 0 36 36"><defs><style>path{fill:#60269D;}@media (prefers-color-scheme: dark) {path{fill:#bfbfbf;}}</style></defs><title>Mood</title><path d="M11.2,31.08V.27C11.25,0,11.13,0,10.91,0H6.45A4.29,4.29,0,0,0,5,.18,4.85,4.85,0,0,0,2,2.76,3.92,3.92,0,0,0,1.39,4.9q0,15.35,0,30.71c0,.33.11.43.42.37h0c1.52,0,3.05,0,4.58,0A5,5,0,0,0,11.2,31.08Z"/><path d="M29.87,36H34.1c.52,0,.52,0,.52-.51V16.3a6.41,6.41,0,0,0-.08-1.24A5.09,5.09,0,0,0,29.63,11H25.21c-.31,0-.41.07-.41.4,0,6.51,0,13,0,19.54A5,5,0,0,0,29.87,36Z"/><path d="M22.88,10.68c0-.15,0-.3,0-.44h0a5,5,0,0,0-5-4.74H13.43c-.1,0-.22,0-.29.08h0c-.12.13-.06.28-.06.42q0,12.27,0,24.55a.76.76,0,0,0,.06.47h0v.06a1.74,1.74,0,0,0,.08.75h0c0,.06,0,.13,0,.2a5,5,0,0,0,4.64,4c1.59,0,3.18,0,4.77,0h.16c.17-.14.09-.32.09-.49Z"/></svg>