<svg id="Layer_1" data-name="Layer 1" xmlns="http://www.w3.org/2000/svg" viewBox="0 0 55 180"><defs><style>@keyframes col3 {0% {fill: #e5e5e5;}20% {fill: #60269d;}40% {fill: #8c9091;}60% {fill: #60269d;}80% {fill: #e5e5e5;}}@keyframes col2 {0% {fill: #8c9091;}20% {fill: #e5e5e5;}40% {fill: #60269d;}60% {fill: #e5e5e5;}80% {fill: #8c9091;}}@keyframes col1 {0% {fill: #60269d;}20% {fill: #8c9091;}40% {fill: #e5e5e5;}60% {fill: #8c9091;}80% {fill: #60269d;}}.cls-1{fill:#60269d;animation:col1 2s linear infinite;}.cls-2{fill:#8c9091;animation:col2 2s linear infinite;}.cls-3{fill:#e5e5e5;animation:col3 2s linear infinite;}</style></defs><title>arrows</title><path class="cls-1" d="M21.87,177.54.23,128.61c-.91-2,1.86-4,5.63-4H49.14c3.77,0,6.54,2,5.63,4L33.13,177.54C31.68,180.82,23.32,180.82,21.87,177.54Z"/><path class="cls-2" d="M21.87,116.67.23,67.74c-.91-2,1.86-4,5.63-4H49.14c3.77,0,6.54,2,5.63,4L33.13,116.67C31.68,120,23.32,120,21.87,116.67Z"/><path class="cls-3" d="M21.87,52.94.23,4C-.68,2,2.09,0,5.86,0H49.14c3.77,0,6.54,2,5.63,4L33.13,52.94C31.68,56.23,23.32,56.23,21.87,52.94Z"/></svg>