<svg xmlns="http://www.w3.org/2000/svg" xmlns:xlink="http://www.w3.org/1999/xlink" viewBox="0 0 256 256"><defs><style>@keyframes spin {from {transform: rotate(0deg);}to {transform: rotate(360deg);}}.cls-1{fill:none;}.cls-2{isolation:isolate;}.cls-3{clip-path:url(#clip-path);}.cls-4{fill:url(#radial-gradient);}.cls-5{opacity:0.69;mix-blend-mode:hard-light;transform-origin: 50% 50%;animation:spin 12s linear infinite;}.cls-6{fill:url(#radial-gradient-2);}.cls-7{font-size:89.6px;fill:#e8e338;stroke:#e8e338;stroke-miterlimit:10;stroke-width:1.66px;font-family:BebasNeueBold, Bebas Neue;letter-spacing:0.04em;}.cls-8{letter-spacing:0.04em;}.cls-9{fill:#fff;}</style><clipPath id="clip-path"><circle class="cls-1" cx="128" cy="128" r="128"/></clipPath><radialGradient id="radial-gradient" cx="128" cy="128" r="128" gradientUnits="userSpaceOnUse"><stop offset="0" stop-color="#613391"/><stop offset="1" stop-color="#352063"/></radialGradient><radialGradient id="radial-gradient-2" cx="128.05" cy="129.4" r="168.65" gradientUnits="userSpaceOnUse"><stop offset="0" stop-color="#fff" stop-opacity="0.2"/><stop offset="0.14" stop-color="#fff" stop-opacity="0.15"/><stop offset="0.44" stop-color="#fff" stop-opacity="0.07"/><stop offset="0.73" stop-color="#fff" stop-opacity="0.02"/><stop offset="1" stop-color="#fff" stop-opacity="0"/></radialGradient></defs><title>Artboard 1</title><g class="cls-2"><g id="Layer_1" data-name="Layer 1"><g class="cls-3"><circle class="cls-4" cx="128" cy="128" r="128"/><g class="cls-5"><path class="cls-6" d="M288.55-31c-5,3-10,3-15,6-18,64-64,123-128,146,23-16,40-36,55-60,2-3,3-6,5-9,12-23,20-47,23-72a177,177,0,0,1-23-1,212.88,212.88,0,0,1-22,81c-2,3-3,6-5,9-4,6-7,11-11,17-3,4-6,8-10,11-6,6-10,13-17,18,9-15,17-32,21-50,0-1,2-3,2-4a212.87,212.87,0,0,0,3-87c-8-1-16-4-24-4a207.3,207.3,0,0,1-8,141c6-52-8-105-38-148-10,0-21-3-31-2,38,40,62,93,61,148-16-66-68-119-130-145-10,2-19,3-29,5,3,5,3,10,5,15a300.53,300.53,0,0,1,32,11c6,3,13,6,19,9,44,23,79,62,96,108-33-46-86-75-141-83a177,177,0,0,1-1,23c47,3,91,22,126,54,2,2,4,5,7,7,1,1,2,3,3,4-42-26-93-34-141-26-1,8-4,16-4,24a207.3,207.3,0,0,1,141,8c-52-6-105,8-148,38,0,10-3,21-2,31,21-19,43-35,69-46,6-3,13-4,19-6,19-6,39-10,59-9-66,17-119,69-144,131,2,9,3,19,5,28,5-3,10-3,15-5,17-65,64-124,128-147-45,33-76,85-83,141a177,177,0,0,1,23,1c3-51,27-101,65-136-25,42-34,93-26,141,8,2,16,3,24,5-14-47-12-97,8-142-6,52,8,106,38,148,10,1,21,2,31,2-8-9-16-18-23-28-5-6-8-12-12-18-1-3-3-6-5-9-14-29-22-60-21-92,17,66,68,118,130,144,10-2,19-3,29-5-3-5-3-10-5-15-35-9-67-25-94-50-2-2-4-5-7-7-1-1-2-3-3-4s-3-2-4-3c-9-10-17-20-24-32-2-3-3-6-5-9a228.77,228.77,0,0,1-10-23c1,2,2,3,3,5a173.83,173.83,0,0,1,13,15c34,35,78,56,125,63a177,177,0,0,1,1-23c-28-1-55-10-81-22-3-2-6-3-9-5-18-11-33-22-46-38,41,27,93,33,141,26,1-8,4-16,4-24a207.3,207.3,0,0,1-141-8c52,6,105-8,148-38,0-10,3-21,2-31-39,38-92,62-147,61,66-17,118-68,144-130-2-10-3-19-5-29Z"/></g><text class="cls-7" transform="matrix(0.87, -0.13, 0, 1, 42.61, 174.27)">Nue<tspan class="cls-8" x="117.64" y="0">v</tspan><tspan x="157.15" y="0">o</tspan></text><path class="cls-9" d="M183.54,75.77V56.68a3.23,3.23,0,0,0-6.46,0V75.77a3.23,3.23,0,0,0,6.46,0"/><path class="cls-9" d="M189.85,63H170.77a3.23,3.23,0,1,0,0,6.45h19.08a3.23,3.23,0,1,0,0-6.45"/><path class="cls-9" d="M201.42,62.37V52.43a1.69,1.69,0,0,0-3.37,0v9.94a1.69,1.69,0,0,0,3.37,0"/><path class="cls-9" d="M204.7,55.72h-9.94a1.68,1.68,0,1,0,0,3.36h9.94a1.68,1.68,0,1,0,0-3.36"/><path class="cls-9" d="M60.12,207.1V186.27a3.52,3.52,0,1,0-7,0V207.1a3.52,3.52,0,1,0,7,0"/><path class="cls-9" d="M67,193.16H46.19a3.53,3.53,0,0,0,0,7.05H67a3.53,3.53,0,0,0,0-7.05"/><path class="cls-9" d="M90,189V178.11a1.83,1.83,0,1,0-3.66,0V189A1.83,1.83,0,1,0,90,189"/><path class="cls-9" d="M93.62,181.7H82.78a1.84,1.84,0,1,0,0,3.67H93.62a1.84,1.84,0,1,0,0-3.67"/><circle class="cls-1" cx="152.79" cy="109.74" r="128"/></g></g></g></svg>