<svg xmlns="http://www.w3.org/2000/svg" xmlns:xlink="http://www.w3.org/1999/xlink" viewBox="0 0 256 256"><defs><style>@keyframes spin {from {transform: rotate(0deg);}to {transform: rotate(360deg);}}.cls-1{fill:none;}.cls-2{clip-path:url(#clip-path);}.cls-3{fill:url(#radial-gradient);}.cls-4{opacity:0.69;transform-origin: 50% 50%;animation:spin 12s linear infinite;}.cls-5{fill:url(#radial-gradient-2);}.cls-6{fill:#fff;}.cls-7{isolation:isolate;}.cls-8{fill:#e8e338;}</style><clipPath id="clip-path"><circle class="cls-1" cx="128" cy="128" r="128"/></clipPath><radialGradient id="radial-gradient" cx="128" cy="128" r="128" gradientTransform="matrix(1, 0, 0, -1, 0, 256)" gradientUnits="userSpaceOnUse"><stop offset="0" stop-color="#613391"/><stop offset="1" stop-color="#352063"/></radialGradient><radialGradient id="radial-gradient-2" cx="128.05" cy="126.6" r="168.65" gradientTransform="matrix(1, 0, 0, -1, 0, 256)" gradientUnits="userSpaceOnUse"><stop offset="0" stop-color="#fff" stop-opacity="0.2"/><stop offset="0.14" stop-color="#fff" stop-opacity="0.15"/><stop offset="0.44" stop-color="#fff" stop-opacity="0.07"/><stop offset="0.73" stop-color="#fff" stop-opacity="0.02"/><stop offset="1" stop-color="#fff" stop-opacity="0"/></radialGradient></defs><title>Artboard 1</title><g id="Layer_1-2" data-name="Layer 1"><g class="cls-2"><circle class="cls-3" cx="128" cy="128" r="128"/><g class="cls-4"><path class="cls-5" d="M288.55-31c-5,3-10,3-15,6-18,64-64,123-128,146,23-16,40-36,55-60,2-3,3-6,5-9,12-23,20-47,23-72a176.71,176.71,0,0,1-23-1,212.9,212.9,0,0,1-22,81c-2,3-3,6-5,9-4,6-7,11-11,17-3,4-6,8-10,11-6,6-10,13-17,18,9-15,17-32,21-50,0-1,2-3,2-4a213,213,0,0,0,3-87c-8-1-16-4-24-4a207.28,207.28,0,0,1-8,141c6-52-8-105-38-148-10,0-21-3-31-2,38,40,62,93,61,148-16-66-68-119-130-145-10,2-19,3-29,5,3,5,3,10,5,15a301.21,301.21,0,0,1,32,11c6,3,13,6,19,9,44,23,79,62,96,108-33-46-86-75-141-83a176.71,176.71,0,0,1-1,23c47,3,91,22,126,54,2,2,4,5,7,7,1,1,2,3,3,4-42-26-93-34-141-26-1,8-4,16-4,24a207.28,207.28,0,0,1,141,8c-52-6-105,8-148,38,0,10-3,21-2,31,21-19,43-35,69-46,6-3,13-4,19-6,19-6,39-10,59-9-66,17-119,69-144,131,2,9,3,19,5,28,5-3,10-3,15-5,17-65,64-124,128-147-45,33-76,85-83,141a176.71,176.71,0,0,1,23,1c3-51,27-101,65-136-25,42-34,93-26,141,8,2,16,3,24,5-14-47-12-97,8-142-6,52,8,106,38,148,10,1,21,2,31,2-8-9-16-18-23-28-5-6-8-12-12-18-1-3-3-6-5-9-14-29-22-60-21-92,17,66,68,118,130,144,10-2,19-3,29-5-3-5-3-10-5-15-35-9-67-25-94-50-2-2-4-5-7-7-1-1-2-3-3-4s-3-2-4-3c-9-10-17-20-24-32-2-3-3-6-5-9a229.6,229.6,0,0,1-10-23c1,2,2,3,3,5a173.13,173.13,0,0,1,13,15c34,35,78,56,125,63a176.71,176.71,0,0,1,1-23c-28-1-55-10-81-22-3-2-6-3-9-5-18-11-33-22-46-38,41,27,93,33,141,26,1-8,4-16,4-24a207.28,207.28,0,0,1-141-8c52,6,105-8,148-38,0-10,3-21,2-31-39,38-92,62-147,61,66-17,118-68,144-130C291.55-12,290.55-21,288.55-31Z"/></g><path class="cls-6" d="M183.54,75.77V56.68a3.23,3.23,0,0,0-6.46,0V75.77a3.23,3.23,0,0,0,6.46,0"/><path class="cls-6" d="M189.85,63H170.77a3.23,3.23,0,0,0-.36,6.45h19.44a3.23,3.23,0,0,0,.36-6.45h-.36"/><path class="cls-6" d="M201.42,62.37V52.43a1.69,1.69,0,0,0-3.37,0v9.94a1.69,1.69,0,0,0,3.37,0"/><path class="cls-6" d="M204.7,55.72h-9.94a1.68,1.68,0,1,0,0,3.36h9.94a1.68,1.68,0,1,0,0-3.36"/><path class="cls-6" d="M60.12,207.1V186.27a3.52,3.52,0,0,0-7-.75,3.14,3.14,0,0,0,0,.75V207.1a3.52,3.52,0,0,0,7,.75,3.14,3.14,0,0,0,0-.75"/><path class="cls-6" d="M67,193.16H46.19a3.53,3.53,0,0,0,0,7.05H67a3.53,3.53,0,0,0,0-7.05"/><path class="cls-6" d="M90,189V178.11a1.83,1.83,0,1,0-3.66,0V189A1.83,1.83,0,0,0,90,189"/><path class="cls-6" d="M93.62,181.7H82.78a1.84,1.84,0,0,0-.27,3.67H93.62a1.84,1.84,0,0,0,.27-3.67h-.27"/><circle class="cls-1" cx="152.79" cy="109.74" r="128"/></g></g><g class="cls-7"><polygon class="cls-8" points="64.39 107.46 64.39 138.79 57.03 108.56 44.82 110.38 44.82 174.78 54.2 173.38 54.2 134.15 63.42 172 73.68 170.47 73.68 106.07 64.39 107.46"/><path class="cls-8" d="M98.29,102.39v49.1c0,4.76-2,5.68-3.73,5.93a2.75,2.75,0,0,1-2.33-.44c-.77-.66-1.16-2.06-1.16-4.16V103.47L80.83,105v48.47c0,5.87,1.44,10.09,4.28,12.54A10.25,10.25,0,0,0,92,168.35a17.56,17.56,0,0,0,2.54-.2c8.7-1.3,13.49-7.87,13.49-18.5V100.93Z"/><polygon class="cls-8" points="140.33 106.75 140.33 96.11 115.29 99.85 115.29 164.25 140.33 160.51 140.33 149.87 125.52 152.08 125.52 135.39 137.29 133.63 137.29 123 125.52 124.75 125.52 108.96 140.33 106.75"/><polygon class="cls-8" points="166.82 92.15 161 138.48 155.18 93.89 144.88 95.43 153.52 158.54 167.76 156.41 176.4 90.72 166.82 92.15"/><path class="cls-8" d="M204.28,89.49c-2.39-2.07-5.64-2.81-9.64-2.21-8.72,1.3-13.72,8.06-13.72,18.53v32.62c0,5.78,1.45,10,4.32,12.43a10.46,10.46,0,0,0,7.08,2.41,16.62,16.62,0,0,0,2.57-.2c8.72-1.3,13.72-8.06,13.72-18.53V101.92C208.61,96.14,207.16,92,204.28,89.49Zm-5.9,13.09v33.86c0,4.9-2.13,5.79-3.74,6a2.75,2.75,0,0,1-2.3-.46c-.79-.68-1.19-2.1-1.19-4.24V103.9c0-4.9,2.13-5.78,3.74-6a4.53,4.53,0,0,1,.71-.06,2.31,2.31,0,0,1,1.58.51C198,99,198.38,100.44,198.38,102.58Z"/></g></svg>