<svg id="Layer_1" data-name="Layer 1" xmlns="http://www.w3.org/2000/svg" viewBox="0 0 837 122"><defs><style>.cls-1{fill:#ebebeb;}</style></defs><title>silver-plus</title><path class="cls-1" d="M4.06,101.48c8.46,7.44,16.93,12.28,27.67,12.28C48.16,113.76,55,102.41,55,92.17c0-10.61-5.21-17.86-26.69-26.24C8.13,58.11.15,48.07.15,31.87.15,16.43,10.25.05,34.66.05,46.54.05,58.58,3.4,64.27,6.57L60.86,19C52.72,11.78,44.26,8.24,33.52,8.24c-12.7,0-20.18,9.12-20.18,18.8,0,11.54,6.83,17.68,25.06,25.12,22.78,9.3,30.43,19.54,30.43,35.73C68.83,105.38,57.6,122,30.75,122,19.52,122,7,118.23.65,114.32ZM90,119.16V2.84h15.79V119.16Zm41.83,0V2.84h15.46V110.78h17.41c15.3,0,22-1.49,29-3.35v11.73Zm94.56.37-36-116.69h16.76l30,99.57h1.62L268.69,2.84h8.62l-36,116.69Zm63.14-.37V2.84h61.84v12.1c-7-2.42-13.67-3.72-29-3.72H305.15V55.88h33v8.37h-33v46.53H322.4c15.29,0,22-1.49,29-3.72v12.1Zm138.83,0L402.14,69.09,388,68.54v50.62H372.2V3l31.74-.74c25.71-.56,36.61,12.09,36.61,29.21,0,15.64-8.79,27.73-23.6,33.13l29.46,54.53ZM388,11V59.42a58.62,58.62,0,0,0,10.25.93c14.81,0,25.71-8.75,25.71-24.94S415.49,11,399.54,11ZM451.3,74.86V65h35.48v9.86Zm57.45,44.3V2.84L539,2.29c26.53-.56,39.06,15.26,39.06,32.19,0,25.5-18.07,38.89-39.87,38.89-4.56,0-9.44-.37-13.67-.74v46.53ZM524.53,11V63.88a47.57,47.57,0,0,0,12.2,1.31c14,0,24.74-10.43,24.74-27.17,0-16.2-9.76-27-23.92-27Zm72.26,108.13V2.84h15.46V110.78h17.42c15.29,0,22-1.49,29-3.35v11.73ZM739.19,2.84h8.63V78.58c0,27.17-14.49,43.37-38.25,43.37-23.59,0-37.92-14.52-37.92-45V2.84h15.79V73.19c0,27.73,11.23,36.1,26.69,36.1,15.63,0,25.06-11.53,25.06-32.75Zm32.88,98.64c8.47,7.44,16.93,12.28,27.67,12.28,16.44,0,23.27-11.35,23.27-21.59,0-10.61-5.21-17.86-26.69-26.24-20.18-7.82-28.15-17.86-28.15-34.06,0-15.44,10.09-31.82,34.5-31.82,11.88,0,23.92,3.35,29.62,6.52L828.87,19c-8.14-7.25-16.6-10.79-27.34-10.79-12.69,0-20.18,9.12-20.18,18.8,0,11.54,6.83,17.68,25.06,25.12,22.79,9.3,30.44,19.54,30.44,35.73,0,17.49-11.23,34.06-38.09,34.06-11.22,0-23.76-3.72-30.1-7.63Z"/></svg>